<svg 
 xmlns="http://www.w3.org/2000/svg"
 xmlns:xlink="http://www.w3.org/1999/xlink"
 width="20px" height="20px">
<defs>
<filter id="Filter_0">
    <feFlood flood-color="rgb(0, 97, 255)" flood-opacity="1" result="floodOut" />
    <feComposite operator="atop" in="floodOut" in2="SourceGraphic" result="compOut" />
    <feBlend mode="normal" in="compOut" in2="SourceGraphic" />
</filter>

</defs>
<g filter="url(#Filter_0)">
<path fill-rule="evenodd"  fill="rgb(0, 0, 0)"
 d="M9.999,19.996 C4.487,19.996 0.002,15.512 0.002,9.999 C0.002,4.487 4.487,0.002 9.999,0.002 C15.512,0.002 19.997,4.487 19.997,9.999 C19.997,15.512 15.512,19.996 9.999,19.996 ZM8.855,9.619 C8.855,9.619 9.978,9.535 9.978,8.219 C9.978,6.902 9.060,6.259 7.895,6.259 L5.754,6.259 L5.691,6.259 L4.067,6.259 L4.067,13.618 L5.691,13.618 L5.754,13.618 L7.895,13.618 C7.895,13.618 10.233,13.692 10.233,11.446 C10.233,11.446 10.335,9.619 8.855,9.619 ZM14.804,6.692 L11.768,6.692 L11.768,7.599 L14.804,7.599 L14.804,6.692 ZM13.352,8.131 C10.522,8.131 10.525,10.959 10.525,10.959 C10.525,10.959 10.331,13.772 13.352,13.772 C13.352,13.772 15.870,13.916 15.870,11.815 L14.575,11.815 C14.575,11.815 14.618,12.606 13.395,12.606 C13.395,12.606 12.100,12.693 12.100,11.325 L15.913,11.325 C15.913,11.325 16.331,8.131 13.352,8.131 ZM13.380,9.209 C14.517,9.209 14.502,10.343 14.502,10.343 L12.085,10.343 C12.085,10.343 12.243,9.209 13.380,9.209 ZM7.787,12.310 C7.731,12.311 7.683,12.310 7.651,12.310 L5.754,12.310 L5.754,10.343 L7.895,10.343 C7.895,10.343 8.672,10.333 8.672,11.354 C8.672,12.215 8.092,12.303 7.787,12.310 ZM7.763,9.209 L5.753,9.209 L5.753,7.567 L5.754,7.567 L7.620,7.567 L7.895,7.567 C7.895,7.567 8.416,7.567 8.416,8.332 C8.416,9.098 8.110,9.209 7.763,9.209 Z"/>
</g>
</svg>