<svg 
 xmlns="http://www.w3.org/2000/svg"
 xmlns:xlink="http://www.w3.org/1999/xlink"
 width="20px" height="20px">
<defs>
<filter id="Filter_0">
    <feFlood flood-color="rgb(234, 76, 137)" flood-opacity="1" result="floodOut" />
    <feComposite operator="atop" in="floodOut" in2="SourceGraphic" result="compOut" />
    <feBlend mode="normal" in="compOut" in2="SourceGraphic" />
</filter>

</defs>
<g filter="url(#Filter_0)">
<path fill-rule="evenodd"  fill="rgb(0, 0, 0)"
 d="M10.000,-0.000 C4.486,0.000 0.000,4.486 0.000,10.000 C0.000,15.513 4.486,19.999 10.000,19.999 C15.514,19.999 20.000,15.513 20.000,10.000 C20.000,4.486 15.514,0.000 10.000,-0.000 ZM16.579,4.720 C17.720,6.135 18.414,7.923 18.446,9.870 C18.066,9.793 16.458,9.492 14.537,9.492 C13.918,9.492 13.265,9.524 12.612,9.604 C12.556,9.471 12.501,9.336 12.443,9.201 C12.273,8.801 12.091,8.405 11.901,8.015 C14.857,6.796 16.284,5.103 16.579,4.720 ZM10.000,1.565 C12.130,1.565 14.078,2.358 15.566,3.664 C15.330,3.986 14.053,5.584 11.202,6.663 C9.883,4.247 8.439,2.247 8.095,1.783 C8.707,1.641 9.345,1.565 10.000,1.565 ZM6.371,2.386 C6.662,2.787 8.108,4.807 9.462,7.204 C5.830,8.160 2.604,8.223 1.826,8.223 C1.795,8.223 1.767,8.223 1.744,8.223 C2.303,5.642 4.044,3.497 6.371,2.386 ZM1.552,10.013 C1.552,9.943 1.553,9.873 1.555,9.804 C1.606,9.805 1.680,9.806 1.777,9.806 C2.825,9.806 6.464,9.719 10.214,8.604 C10.442,9.050 10.659,9.502 10.860,9.954 C10.766,9.982 10.672,10.009 10.579,10.039 C6.357,11.405 4.036,15.020 3.679,15.610 C2.356,14.118 1.552,12.158 1.552,10.013 ZM10.000,18.461 C8.062,18.461 6.275,17.803 4.847,16.702 C5.088,16.228 6.840,13.070 11.467,11.457 C11.470,11.456 11.474,11.455 11.477,11.454 C12.637,14.479 13.128,17.018 13.263,17.804 C12.259,18.227 11.156,18.461 10.000,18.461 ZM14.784,16.971 C14.671,16.320 14.216,13.941 13.165,11.039 C13.755,10.948 14.328,10.912 14.866,10.912 C16.632,10.911 18.013,11.299 18.334,11.396 C17.952,13.702 16.634,15.695 14.784,16.971 Z"/>
</g>
</svg>