<svg 
 xmlns="http://www.w3.org/2000/svg"
 xmlns:xlink="http://www.w3.org/1999/xlink"
 width="20px" height="20px">
<defs>
<filter id="Filter_0">
    <feFlood flood-color="rgb(0, 172, 237)" flood-opacity="1" result="floodOut" />
    <feComposite operator="atop" in="floodOut" in2="SourceGraphic" result="compOut" />
    <feBlend mode="normal" in="compOut" in2="SourceGraphic" />
</filter>

</defs>
<g filter="url(#Filter_0)">
<path fill-rule="evenodd"  fill="rgb(0, 0, 0)"
 d="M10.000,-0.000 C4.477,-0.000 -0.000,4.477 -0.000,10.000 C-0.000,15.522 4.477,20.000 10.000,20.000 C15.522,20.000 20.000,15.522 20.000,10.000 C20.000,4.476 15.522,-0.000 10.000,-0.000 ZM14.976,7.755 L14.983,8.073 C14.983,11.328 12.506,15.078 7.977,15.078 C6.587,15.078 5.294,14.670 4.203,13.972 C4.396,13.994 4.592,14.007 4.791,14.007 C5.945,14.007 7.006,13.613 7.848,12.954 C6.771,12.934 5.862,12.221 5.549,11.243 C5.700,11.272 5.853,11.286 6.013,11.286 C6.238,11.286 6.455,11.257 6.661,11.201 C5.535,10.974 4.686,9.980 4.686,8.787 L4.686,8.756 C5.019,8.941 5.397,9.051 5.801,9.065 C5.141,8.623 4.706,7.869 4.706,7.016 C4.706,6.565 4.827,6.142 5.039,5.779 C6.252,7.268 8.068,8.249 10.113,8.351 C10.071,8.171 10.050,7.982 10.050,7.789 C10.050,6.431 11.152,5.329 12.512,5.329 C13.220,5.329 13.860,5.627 14.310,6.105 C14.871,5.995 15.398,5.789 15.874,5.509 C15.690,6.084 15.300,6.566 14.791,6.871 C15.288,6.812 15.764,6.678 16.205,6.484 C15.875,6.976 15.456,7.410 14.976,7.755 Z"/>
</g>
</svg>

