<svg 
 xmlns="http://www.w3.org/2000/svg"
 xmlns:xlink="http://www.w3.org/1999/xlink"
 width="20px" height="20px">
<defs>
<filter id="Filter_0">
    <feFlood flood-color="rgb(29, 83, 170)" flood-opacity="1" result="floodOut" />
    <feComposite operator="atop" in="floodOut" in2="SourceGraphic" result="compOut" />
    <feBlend mode="normal" in="compOut" in2="SourceGraphic" />
</filter>

</defs>
<g filter="url(#Filter_0)">
<path fill-rule="evenodd"  fill="rgb(0, 0, 0)"
 d="M10.000,0.002 C4.487,0.002 0.002,4.487 0.002,9.999 C0.002,15.512 4.487,19.997 10.000,19.997 C15.512,19.997 19.997,15.512 19.997,9.999 C19.997,4.487 15.512,0.002 10.000,0.002 ZM12.486,10.351 L10.859,10.351 C10.859,12.950 10.859,16.149 10.859,16.149 L8.449,16.149 C8.449,16.149 8.449,12.981 8.449,10.351 L7.303,10.351 L7.303,8.302 L8.449,8.302 L8.449,6.977 C8.449,6.028 8.900,4.545 10.881,4.545 L12.667,4.552 L12.667,6.541 C12.667,6.541 11.581,6.541 11.370,6.541 C11.159,6.541 10.860,6.646 10.860,7.099 L10.860,8.303 L12.696,8.303 L12.486,10.351 Z"/>
</g>
</svg>