<?xml version="1.0" encoding="utf-8"?>
<svg xmlns="http://www.w3.org/2000/svg">
<symbol id="icon-ball">
<defs>
<filter id="Filter_0">
    <feFlood flood-color="rgb(234, 76, 137)" flood-opacity="1" result="floodOut"/>
    <feComposite operator="atop" in="floodOut" in2="SourceGraphic" result="compOut"/>
    <feBlend mode="normal" in="compOut" in2="SourceGraphic"/>
</filter>

</defs>
<g filter="url(#Filter_0)">
<path fill-rule="evenodd" fill="rgb(0, 0, 0)" d="M10.000,-0.000 C4.486,0.000 0.000,4.486 0.000,10.000 C0.000,15.513 4.486,19.999 10.000,19.999 C15.514,19.999 20.000,15.513 20.000,10.000 C20.000,4.486 15.514,0.000 10.000,-0.000 ZM16.579,4.720 C17.720,6.135 18.414,7.923 18.446,9.870 C18.066,9.793 16.458,9.492 14.537,9.492 C13.918,9.492 13.265,9.524 12.612,9.604 C12.556,9.471 12.501,9.336 12.443,9.201 C12.273,8.801 12.091,8.405 11.901,8.015 C14.857,6.796 16.284,5.103 16.579,4.720 ZM10.000,1.565 C12.130,1.565 14.078,2.358 15.566,3.664 C15.330,3.986 14.053,5.584 11.202,6.663 C9.883,4.247 8.439,2.247 8.095,1.783 C8.707,1.641 9.345,1.565 10.000,1.565 ZM6.371,2.386 C6.662,2.787 8.108,4.807 9.462,7.204 C5.830,8.160 2.604,8.223 1.826,8.223 C1.795,8.223 1.767,8.223 1.744,8.223 C2.303,5.642 4.044,3.497 6.371,2.386 ZM1.552,10.013 C1.552,9.943 1.553,9.873 1.555,9.804 C1.606,9.805 1.680,9.806 1.777,9.806 C2.825,9.806 6.464,9.719 10.214,8.604 C10.442,9.050 10.659,9.502 10.860,9.954 C10.766,9.982 10.672,10.009 10.579,10.039 C6.357,11.405 4.036,15.020 3.679,15.610 C2.356,14.118 1.552,12.158 1.552,10.013 ZM10.000,18.461 C8.062,18.461 6.275,17.803 4.847,16.702 C5.088,16.228 6.840,13.070 11.467,11.457 C11.470,11.456 11.474,11.455 11.477,11.454 C12.637,14.479 13.128,17.018 13.263,17.804 C12.259,18.227 11.156,18.461 10.000,18.461 ZM14.784,16.971 C14.671,16.320 14.216,13.941 13.165,11.039 C13.755,10.948 14.328,10.912 14.866,10.912 C16.632,10.911 18.013,11.299 18.334,11.396 C17.952,13.702 16.634,15.695 14.784,16.971 Z"/>
</g>

</symbol>
<symbol id="icon-behance">
<defs>
<filter id="Filter_0">
    <feFlood flood-color="rgb(0, 97, 255)" flood-opacity="1" result="floodOut"/>
    <feComposite operator="atop" in="floodOut" in2="SourceGraphic" result="compOut"/>
    <feBlend mode="normal" in="compOut" in2="SourceGraphic"/>
</filter>

</defs>
<g filter="url(#Filter_0)">
<path fill-rule="evenodd" fill="rgb(0, 0, 0)" d="M9.999,19.996 C4.487,19.996 0.002,15.512 0.002,9.999 C0.002,4.487 4.487,0.002 9.999,0.002 C15.512,0.002 19.997,4.487 19.997,9.999 C19.997,15.512 15.512,19.996 9.999,19.996 ZM8.855,9.619 C8.855,9.619 9.978,9.535 9.978,8.219 C9.978,6.902 9.060,6.259 7.895,6.259 L5.754,6.259 L5.691,6.259 L4.067,6.259 L4.067,13.618 L5.691,13.618 L5.754,13.618 L7.895,13.618 C7.895,13.618 10.233,13.692 10.233,11.446 C10.233,11.446 10.335,9.619 8.855,9.619 ZM14.804,6.692 L11.768,6.692 L11.768,7.599 L14.804,7.599 L14.804,6.692 ZM13.352,8.131 C10.522,8.131 10.525,10.959 10.525,10.959 C10.525,10.959 10.331,13.772 13.352,13.772 C13.352,13.772 15.870,13.916 15.870,11.815 L14.575,11.815 C14.575,11.815 14.618,12.606 13.395,12.606 C13.395,12.606 12.100,12.693 12.100,11.325 L15.913,11.325 C15.913,11.325 16.331,8.131 13.352,8.131 ZM13.380,9.209 C14.517,9.209 14.502,10.343 14.502,10.343 L12.085,10.343 C12.085,10.343 12.243,9.209 13.380,9.209 ZM7.787,12.310 C7.731,12.311 7.683,12.310 7.651,12.310 L5.754,12.310 L5.754,10.343 L7.895,10.343 C7.895,10.343 8.672,10.333 8.672,11.354 C8.672,12.215 8.092,12.303 7.787,12.310 ZM7.763,9.209 L5.753,9.209 L5.753,7.567 L5.754,7.567 L7.620,7.567 L7.895,7.567 C7.895,7.567 8.416,7.567 8.416,8.332 C8.416,9.098 8.110,9.209 7.763,9.209 Z"/>
</g>

</symbol>
<symbol id="icon-facebook">
<defs>
<filter id="Filter_0">
    <feFlood flood-color="rgb(29, 83, 170)" flood-opacity="1" result="floodOut"/>
    <feComposite operator="atop" in="floodOut" in2="SourceGraphic" result="compOut"/>
    <feBlend mode="normal" in="compOut" in2="SourceGraphic"/>
</filter>

</defs>
<g filter="url(#Filter_0)">
<path fill-rule="evenodd" fill="rgb(0, 0, 0)" d="M10.000,0.002 C4.487,0.002 0.002,4.487 0.002,9.999 C0.002,15.512 4.487,19.997 10.000,19.997 C15.512,19.997 19.997,15.512 19.997,9.999 C19.997,4.487 15.512,0.002 10.000,0.002 ZM12.486,10.351 L10.859,10.351 C10.859,12.950 10.859,16.149 10.859,16.149 L8.449,16.149 C8.449,16.149 8.449,12.981 8.449,10.351 L7.303,10.351 L7.303,8.302 L8.449,8.302 L8.449,6.977 C8.449,6.028 8.900,4.545 10.881,4.545 L12.667,4.552 L12.667,6.541 C12.667,6.541 11.581,6.541 11.370,6.541 C11.159,6.541 10.860,6.646 10.860,7.099 L10.860,8.303 L12.696,8.303 L12.486,10.351 Z"/>
</g>

</symbol>
<symbol id="icon-twitter">
<defs>
<filter id="Filter_0">
    <feFlood flood-color="rgb(0, 172, 237)" flood-opacity="1" result="floodOut"/>
    <feComposite operator="atop" in="floodOut" in2="SourceGraphic" result="compOut"/>
    <feBlend mode="normal" in="compOut" in2="SourceGraphic"/>
</filter>

</defs>
<g filter="url(#Filter_0)">
<path fill-rule="evenodd" fill="rgb(0, 0, 0)" d="M10.000,-0.000 C4.477,-0.000 -0.000,4.477 -0.000,10.000 C-0.000,15.522 4.477,20.000 10.000,20.000 C15.522,20.000 20.000,15.522 20.000,10.000 C20.000,4.476 15.522,-0.000 10.000,-0.000 ZM14.976,7.755 L14.983,8.073 C14.983,11.328 12.506,15.078 7.977,15.078 C6.587,15.078 5.294,14.670 4.203,13.972 C4.396,13.994 4.592,14.007 4.791,14.007 C5.945,14.007 7.006,13.613 7.848,12.954 C6.771,12.934 5.862,12.221 5.549,11.243 C5.700,11.272 5.853,11.286 6.013,11.286 C6.238,11.286 6.455,11.257 6.661,11.201 C5.535,10.974 4.686,9.980 4.686,8.787 L4.686,8.756 C5.019,8.941 5.397,9.051 5.801,9.065 C5.141,8.623 4.706,7.869 4.706,7.016 C4.706,6.565 4.827,6.142 5.039,5.779 C6.252,7.268 8.068,8.249 10.113,8.351 C10.071,8.171 10.050,7.982 10.050,7.789 C10.050,6.431 11.152,5.329 12.512,5.329 C13.220,5.329 13.860,5.627 14.310,6.105 C14.871,5.995 15.398,5.789 15.874,5.509 C15.690,6.084 15.300,6.566 14.791,6.871 C15.288,6.812 15.764,6.678 16.205,6.484 C15.875,6.976 15.456,7.410 14.976,7.755 Z"/>
</g>

</symbol></svg>